<svg id="Layer_1" enable-background="new 0 0 480 480" height="512" viewBox="0 0 480 480" width="512" xmlns="http://www.w3.org/2000/svg"><path d="m402.506 464.74c0 4.01-3.25 7.26-7.26 7.26h-293.48c-4.01 0-7.26-3.25-7.26-7.26 0-40.8 32.78-74.57 73.5-74.57 21.654 0 37.2-14.172 41.38-31.75h-.01c1.36-5.63 1.13-9.27 1.13-16.42l.15-.37c-35.89-14.86-61.15-50.22-61.15-91.5v-3.13c-8.46 0-15.69-3.94-20.22-10.06 0-.01-.01-.01-.01-.02-1.8-2.274-3.584-5.997-4.32-9.8-.64-3.27-.45 4.11-.45-102.12 0-14.91 12.09-27 27-27 12-29.98 41.09-50 73.85-50 47.59 0 78.17-.36 80.72.92 7.817 1.174 15.507 3.66 21.51 6.52.087.048 2.031.951 2.1 1.02 25.99 13.08 43.82 40 43.82 71.08v93.46c0 14.36-11.64 26-26 26v3.13c0 41.28-25.26 76.64-61.15 91.5l.15.37c0 7.15-.23 10.8 1.13 16.42h-.01c4.353 18.289 20.893 31.915 40.7 31.75 41.03-.38 74.18 33.54 74.18 74.57z" fill="#d1e7ff"/><path d="m402.506 464.74c0 4.01-3.25 7.26-7.26 7.26h-293.48c-4.01 0-7.26-3.251-7.26-7.26 0-41.03 33.15-74.95 74.18-74.57 6.01.05 11.75-1.17 16.92-3.42v.01c12.07 27.44 40.79 44.13 70.9 40.59 23.97-2.81 45.03-18.15 54.9-40.59v-.01c5.17 2.25 10.91 3.47 16.92 3.42 41.03-.38 74.18 33.54 74.18 74.57z" fill="#d1e7ff"/><path d="m180.556 419.35c-21.56 5.58-48.88 18.83-56.18 52.65h-22.61c-4.01 0-7.26-3.25-7.26-7.26 0-29.477 17.233-55.87 43.88-67.98h.01c23.82-10.68 30.59-3.08 47.21-10 1.34 3.05 2.89 5.97 4.63 8.75 5.7 9.13.74 21.15-9.68 23.84z" fill="#e8f3ff"/><path d="m402.176 464.74c0 4.01-3.25 7.26-7.26 7.26h-22.61c-7.3-33.82-34.62-47.07-56.18-52.65-10.43-2.69-15.39-14.71-9.68-23.84 1.73-2.78 3.28-5.7 4.63-8.75 16.62 6.92 23.39-.68 47.21 10h.01c26.34 11.97 43.88 38.17 43.88 67.98z" fill="#b9dcff"/><path d="m154.506 174.84c.208-.087.447-.16.707-.224-.238.072-.48.13-.707.224z" fill="#ffebd2"/><path d="m287.636 358.42c-24.637 10.313-51.712 11.113-78.26 0 1.356-5.626 1.13-9.27 1.13-16.42l.15-.37c24.082 9.996 51.571 10.016 75.7 0l.15.37c0 7.153-.226 10.796 1.13 16.42z" fill="#b9dcff"/><path d="m373.506 127.54v93.46c0 14.36-11.64 26-26 26v-55.37c0-4.23-3.29-7.73-7.51-7.98-46.889-2.796-93.839-17.062-136.12-43.78-4.6-2.91-10.65-.51-12.05 4.75-2.09 7.91-6.79 18.04-17.32 24.38-9.685 5.83-17.182 4.678-20 5.84-2.95 1.18-5 4.06-5 7.4v64.76c-8.458 0-15.693-3.936-20.22-10.06 0-.01-.01-.01-.01-.02-1.773-2.24-3.576-5.957-4.32-9.8-.643-3.27-.45 4.109-.45-102.12 0-14.91 12.09-27 27-27 11.998-29.977 41.092-50 73.85-50 47.586 0 78.169-.356 80.72.92 38.11 5.776 67.43 38.787 67.43 78.62z" fill="#b9dcff"/><path d="m154.506 174.84c.208-.087.447-.16.707-.224-.238.072-.48.13-.707.224z" fill="#ffebd2"/><path d="m324.396 78h-69.04c-30.55 0-58.23 17.48-71.48 44.66-1.51 3.1-4.43 5.2-7.81 5.89-12.3 2.52-21.56 13.4-21.56 26.45v19.84c-2.95 1.18-5 4.06-5 7.4v47.49c0 10.83-13.69 15.49-20.22 7.21 0-.01-.01-.01-.01-.02-1.861-2.324-3.605-6.317-4.12-8.89-.903-3.881-.65 3.629-.65-103.03 0-14.91 12.09-27 27-27 12.109-30.253 41.387-50 73.85-50 47.265 0 78.165-.358 80.72.92 9.593 1.454 18.394 4.987 19.68 5.7.201.084 3.778 1.688 3.93 1.84 10.77 5.44 6.8 21.6-5.29 21.54z" fill="#d1e7ff"/><path d="m226.669 161.882c-1.758 14.173-7.974 26.888-18.342 34.593-18.46 13.721-28.822 35.796-28.822 58.797v24.857c0 14.828-18.874 17.518-23.567 5.176-4.157-10.931-6.433-22.788-6.433-35.176v-67.886c0-4.254 3.325-7.744 7.572-7.986 16.246-.926 29.854-11.114 34.753-29.643 1.39-5.256 7.436-7.657 12.033-4.754 5.056 3.194 10.557 6.446 16.499 9.662 4.458 2.416 6.931 7.329 6.307 12.36z" fill="#e8f3ff"/><circle cx="446.506" cy="124" fill="#b9dcff" r="17"/><path d="m90.616 58.96c-9.288 16.052-32.424 16.002-41.66 0-9.232-15.897 2.266-36.07 20.83-36.07 18.61 0 30.033 20.222 20.83 36.07z" fill="#b9dcff"/><path d="m454.289 117.198c-7.538.999-13.679 7.101-14.674 14.658-.472 3.585-5.229 4.683-7.241 1.679-2.23-3.329-3.316-7.49-2.695-11.917 1.72-12.26 15.884-18.65 26.295-11.662 3.005 2.017 1.903 6.767-1.685 7.242z" fill="#d1e7ff"/><path d="m80.442 25.376c3.667 1.852 2.372 7.351-1.732 7.538-12.595.576-22.412 10.646-22.953 22.966-.183 4.165-5.786 5.328-7.602 1.576-10.052-20.774 12.168-42.241 32.287-32.08z" fill="#d1e7ff"/><path d="m410.506 464.743v7.257c0 4.418-3.582 8-8 8s-8-3.582-8-8v-7.257c0-36.795-29.775-66.572-66.573-66.571-17.41 0-33.208-8.87-42.258-23.728-2.299-3.773-1.104-8.695 2.67-10.994 3.772-2.3 8.695-1.103 10.994 2.67 6.123 10.051 16.812 16.051 28.594 16.051 45.637 0 82.573 36.931 82.573 82.572zm-122.885-59.227c-28.753 24.205-72.255 16.772-91.342-15.47 12.609-8.326 20.844-21.886 22.057-37.258 68.573 20.185 137.17-31.57 137.17-102.663v-66.125c0-4.418-3.582-8-8-8s-8 3.582-8 8v66.125c0 50.178-40.822 91-91 91s-91-40.822-91-91v-67.893c19.263-1.094 36.033-13.132 42.004-35.545 33.313 21.334 70.648 35.152 109.832 40.639 4.366.612 8.418-2.43 9.032-6.813.612-4.375-2.438-8.419-6.813-9.032-39.902-5.586-78.836-20.519-113.433-45.01-5.293-3.748-12.654.067-12.622 6.58.001.199-.074 20.04-15.124 29.094-6.064 3.648-12.833 4.682-19.961 3.911-4.222-.484-8.141 2.44-8.809 6.704-.158 1-.106-3.323-.106 64.336-5.344-2.772-9-8.288-9-14.636v-97.46c0-10.477 8.523-19 19-19 3.271 0 6.213-1.992 7.428-5.029 10.927-27.319 36.999-44.971 66.423-44.971h68.607c39.448 0 71.541 32.093 71.541 71.541v94.919c0 4.418 3.582 8 8 8s8-3.582 8-8v-94.919c0-48.27-39.271-87.541-87.541-87.541h-68.607c-34.32 0-64.917 19.63-79.285 50.421-16.728 2.619-29.566 17.128-29.566 34.579v97.46c0 15.305 10.708 28.168 25.081 31.621 1.493 40.859 26 75.943 60.919 92.639v2.11c0 8.913-3.476 17.287-9.787 23.581-11.193 11.161-25.298 9.761-23.642 9.761-45.635 0-82.571 36.929-82.571 82.571v7.257c0 4.418 3.582 8 8 8s8-3.582 8-8v-7.257c0-36.794 29.775-66.572 66.573-66.571 4.22 0 8.414-.532 12.506-1.593 23.505 42.007 79.477 52.209 116.34 21.177 3.38-2.845 3.813-7.892.968-11.272s-7.893-3.812-11.272-.968zm-209.838-327.537v7.899c0 4.418-3.582 8-8 8s-8-3.582-8-8v-7.899c-5.728-1.477-10.837-4.506-14.86-8.604l-6.863 3.962c-3.823 2.208-8.717.902-10.929-2.928-2.209-3.827-.897-8.719 2.929-10.928l6.85-3.954c-1.534-5.506-1.607-11.404 0-17.174l-6.85-3.954c-3.826-2.209-5.138-7.102-2.929-10.928 2.21-3.827 7.103-5.138 10.929-2.928l6.863 3.962c4.023-4.098 9.132-7.127 14.86-8.604v-7.901c0-4.418 3.582-8 8-8s8 3.582 8 8v7.899c5.728 1.477 10.837 4.506 14.86 8.604l6.863-3.962c3.829-2.21 8.72-.898 10.928 2.928 2.21 3.826.898 8.719-2.928 10.928l-6.85 3.955c1.534 5.506 1.607 11.404 0 17.174l6.85 3.955c3.826 2.209 5.138 7.102 2.928 10.928-2.209 3.826-7.102 5.138-10.928 2.928l-6.863-3.962c-4.023 4.098-9.132 7.127-14.86 8.604zm-8-14.989c8.851 0 16.051-7.2 16.051-16.051s-7.2-16.051-16.051-16.051-16.051 7.2-16.051 16.051 7.2 16.051 16.051 16.051zm-5.862 144.339c-3.684-2.439-8.647-1.428-11.086 2.256-8.194 12.376-15.573 6.471-27.728 12.173-5.982 2.807-11.131 7.475-15.303 13.873-3.489 5.351.415 12.371 6.693 12.371 2.613 0 5.175-1.279 6.709-3.631 8.871-13.606 16.323-7.076 28.812-13.183 5.597-2.736 10.359-7.033 14.157-12.772 2.44-3.685 1.43-8.649-2.254-11.087zm367.528 24.676c-4.401.273-7.733 4.057-7.472 8.459.262 4.402 4.063 7.76 8.459 7.51.073-.005 7.132-.348 10.646 4.472 1.743 2.391 1.991 5.107 1.984 6.513-.021 4.418 3.542 8.018 7.961 8.04 4.525 0 8.018-3.625 8.039-7.961.082-16.369-13.424-28.03-29.617-27.033zm40.057-108.005c0 13.785-11.215 25-25 25s-25-11.215-25-25 11.215-25 25-25 25 11.215 25 25zm-16 0c0-4.962-4.037-9-9-9s-9 4.038-9 9 4.037 9 9 9 9-4.038 9-9z" fill="#2e58ff"/></svg>