<svg height="512pt" viewBox="0 0 512 512" width="512pt" xmlns="http://www.w3.org/2000/svg" xmlns:xlink="http://www.w3.org/1999/xlink"><linearGradient id="a" gradientUnits="userSpaceOnUse" x1="0" x2="512" y1="256" y2="256"><stop offset="0" stop-color="#00f38d"/><stop offset="1" stop-color="#009eff"/></linearGradient><path d="m512 256c0 141.386719-114.613281 256-256 256s-256-114.613281-256-256 114.613281-256 256-256 256 114.613281 256 256zm0 0" fill="url(#a)"/><g fill="#fff"><path d="m409.613281 257.390625c-7.773437 0-14.691406 3.648437-19.144531 9.328125h-178.574219c-4.457031-5.675781-11.371093-9.328125-19.148437-9.328125-13.433594 0-24.328125 10.890625-24.328125 24.328125 0 13.433594 10.894531 24.328125 24.328125 24.328125 7.777344 0 14.691406-3.652344 19.148437-9.328125h178.574219c4.453125 5.675781 11.371094 9.328125 19.144531 9.328125 13.4375 0 24.328125-10.894531 24.328125-24.328125 0-13.4375-10.890625-24.328125-24.328125-24.328125zm0 0"/><path d="m409.613281 385.285156c-7.773437 0-14.691406 3.652344-19.144531 9.328125h-17.292969v-64.644531h-123.914062c-4.425781-6.070312-11.585938-10.023438-19.675781-10.023438-13.433594 0-24.328126 10.894532-24.328126 24.328126 0 13.4375 10.894532 24.328124 24.328126 24.328124 7.453124 0 14.121093-3.355468 18.582031-8.632812h95.011719v64.644531h47.289062c4.453125 5.675781 11.371094 9.328125 19.144531 9.328125 13.4375 0 24.328125-10.890625 24.328125-24.328125s-10.890625-24.328125-24.328125-24.328125zm0 0"/><path d="m394.613281 174.359375v30.496094h-105.039062c-4.421875-6.074219-11.585938-10.023438-19.671875-10.023438-13.4375 0-24.328125 10.894531-24.328125 24.328125 0 13.4375 10.890625 24.328125 24.328125 24.328125 7.453125 0 14.121094-3.355469 18.582031-8.632812h136.128906v-60.496094c5.675781-4.453125 9.328125-11.371094 9.328125-19.144531 0-13.4375-10.890625-24.328125-24.328125-24.328125s-24.328125 10.890625-24.328125 24.328125c0 7.773437 3.652344 14.691406 9.328125 19.144531zm0 0"/><path d="m220.550781 402.351562c-24.175781-12.941406-114.6875-67.222656-114.6875-154.367187v-83.707031c0-6.765625 4.453125-12.511719 10.589844-13.664063 37.117187-6.960937 70.453125-27.582031 87.023437-39.253906 5.105469-3.597656 11.011719-5.496094 17.074219-5.496094s11.96875 1.898438 17.074219 5.496094c16.570312 11.671875 49.90625 32.292969 87.023438 39.253906 6.136718 1.152344 10.589843 6.898438 10.589843 13.664063v13.179687h27.804688v-13.179687c0-20.132813-13.992188-37.375-33.269531-40.988282-31.945313-5.992187-61.414063-24.285156-76.136719-34.660156-9.820313-6.914062-21.257813-10.570312-33.085938-10.570312s-23.269531 3.65625-33.085937 10.570312c-14.726563 10.375-44.191406 28.667969-76.136719 34.660156-19.277344 3.613282-33.269531 20.851563-33.269531 40.988282v83.707031c0 27.5625 7.375 54.441406 21.921875 79.898437 11.410156 19.964844 27.226562 39.054688 47.007812 56.734376 33.296875 29.757812 66.300781 45.292968 67.691407 45.9375l5.867187 2.734374 5.871094-2.734374c1.371093-.636719 33.65625-15.464844 66.570312-44.574219h-45.125c-11.527343 7.953125-21.402343 13.210937-27.3125 16.371093zm0 0"/></g></svg>